{"title":"The Last Naruto the Movie (2014) HDRip 720p[CT]","uid":11964429,"size":812019735,"categoryP":"video","categoryS":"movies","magnet":"?xt=urn:btih:c228f39c80ee0e3d2fdbd656ab3903a4e40db0f8&amp;dn=The+Last+Naruto+the+Movie+%282014%29+HDRip+720p%5BCT%5D&amp;tr=udp%3A%2F%2Ftracker.openbittorrent.com%3A80&amp;tr=udp%3A%2F%2Fopen.demonii.com%3A1337&amp;tr=udp%3A%2F%2Ftracker.coppersurfer.tk%3A6969&amp;tr=udp%3A%2F%2Fexodus.desync.com%3A6969","seeders":2,"leechers":2,"uploader":"lordorih","files":2,"time":1432598679,"description":"General\nFormat                         : MPEG-4\nFormat profile                 : Base Media\nCodec ID                       : isom\nFile size                      : 765 MiB\nDuration                       : 1h 51mn\nOverall bit rate               : 957 Kbps\nWriting application            : Lavf56.15.102\n\nVideo\nID                             : 1\nFormat                         : AVC\nFormat/Info                    : Advanced Video Codec\nFormat profile                 : &lt;a class=&quot;__cf_email__&quot; href=&quot;/cdn-cgi/l/email-protection&quot; data-cfemail=&quot;7e361719163e324d504f&quot;&gt;[email&amp;#160;protected]&lt;/a&gt;&lt;script data-cfhash='f9e31' type=&quot;text/javascript&quot;&gt;\n/* &lt;![CDATA[ */!function(){try{var t=&quot;currentScript&quot;in document?document.currentScript:function(){for(var t=document.getElementsByTagName(&quot;script&quot;),e=t.length;e--;)if(t[e].getAttribute(&quot;data-cfhash&quot;))return t[e]}();if(t&amp;&amp;t.previousSibling){var e,r,n,i,c=t.previousSibling,a=c.getAttribute(&quot;data-cfemail&quot;);if(a){for(e=&quot;&quot;,r=parseInt(a.substr(0,2),16),n=2;a.length-n;n+=2)i=parseInt(a.substr(n,2),16)^r,e+=String.fromCharCode(i);e=document.createTextNode(e),c.parentNode.replaceChild(e,c)}t.parentNode.removeChild(t);}}catch(u){}}()/* ]]&gt; */&lt;/script&gt;\nFormat settings, CABAC         : Yes\nFormat settings, ReFrames      : 4 frames\nCodec ID                       : avc1\nCodec ID/Info                  : Advanced Video Coding\nDuration                       : 1h 51mn\nBit rate                       : 900 Kbps\nWidth                          : 1 280 pixels\nHeight                         : 720 pixels\nDisplay aspect ratio           : 16:9\nFrame rate mode                : Constant\nFrame rate                     : 25.000 fps\nColor space                    : YUV\nChroma subsampling             : 4:2:0\nBit depth                      : 8 bits\nScan type                      : Progressive\nBits/(Pixel*Frame)             : 0.039\nStream size                    : 722 MiB (94%)\nWriting library                : x264 core 142 r2389 956c8d8\n\nAudio\nID                             : 2\nFormat                         : AAC\nFormat/Info                    : Advanced Audio Codec\nFormat profile                 : LC\nCodec ID                       : 40\nDuration                       : 1h 51mn\nBit rate mode                  : Constant\nBit rate                       : 48.0 Kbps\nChannel(s)                     : 2 channels\nChannel(s)_Original            : 1 channel\nChannel positions              : Front: C\nSampling rate                  : 44.1 KHz\nCompression mode               : Lossy\nStream size                    : 38.4 MiB (5%)","torrent":{"xt":"urn:btih:c228f39c80ee0e3d2fdbd656ab3903a4e40db0f8","amp;dn":"The+Last+Naruto+the+Movie+%282014%29+HDRip+720p%5BCT%5D","amp;tr":["udp%3A%2F%2Ftracker.openbittorrent.com%3A80","udp%3A%2F%2Fopen.demonii.com%3A1337","udp%3A%2F%2Ftracker.coppersurfer.tk%3A6969","udp%3A%2F%2Fexodus.desync.com%3A6969"],"infoHash":"c228f39c80ee0e3d2fdbd656ab3903a4e40db0f8","infoHashBuffer":{"type":"Buffer","data":[194,40,243,156,128,238,14,61,47,219,214,86,171,57,3,164,228,13,176,248]},"announce":[],"urlList":[]}}